<svg width="24" height="24" viewBox="0 0 24 24" fill="none" xmlns="http://www.w3.org/2000/svg">
<path d="M4.5 4.49953C4.5 3.70388 4.81607 2.94082 5.37868 2.37821C5.94129 1.8156 6.70435 1.49953 7.5 1.49953C8.29565 1.49953 9.05871 1.8156 9.62132 2.37821C10.1839 2.94082 10.5 3.70388 10.5 4.49953C10.5 5.29518 10.1839 6.05824 9.62132 6.62085C9.05871 7.18346 8.29565 7.49953 7.5 7.49953C6.70435 7.49953 5.94129 7.18346 5.37868 6.62085C4.81607 6.05824 4.5 5.29518 4.5 4.49953ZM7.5 2.99953C7.10218 2.99953 6.72064 3.15756 6.43934 3.43887C6.15804 3.72017 6 4.1017 6 4.49953C6 4.89735 6.15804 5.27888 6.43934 5.56019C6.72064 5.84149 7.10218 5.99953 7.5 5.99953C7.89782 5.99953 8.27936 5.84149 8.56066 5.56019C8.84196 5.27888 9 4.89735 9 4.49953C9 4.1017 8.84196 3.72017 8.56066 3.43887C8.27936 3.15756 7.89782 2.99953 7.5 2.99953ZM14.6685 6.87553C14.3542 6.63582 14.0904 6.33637 13.8923 5.9944C13.6941 5.65242 13.5655 5.27465 13.5137 4.88281C13.462 4.49096 13.4882 4.09275 13.5909 3.71107C13.6935 3.32939 13.8706 2.97175 14.1119 2.65871C14.3532 2.34567 14.654 2.0834 14.997 1.88697C15.3399 1.69053 15.7184 1.56381 16.1105 1.51408C16.5026 1.46435 16.9006 1.49259 17.2818 1.59717C17.663 1.70176 18.0197 1.88064 18.3315 2.12353C18.9454 2.61463 19.3421 3.32712 19.436 4.10768C19.53 4.88825 19.3138 5.6745 18.8339 6.29727C18.3541 6.92004 17.6489 7.32956 16.8702 7.4377C16.0915 7.54585 15.2999 7.34398 14.6685 6.87553ZM16.5 2.99953C16.1022 2.99953 15.7206 3.15756 15.4393 3.43887C15.158 3.72017 15 4.1017 15 4.49953C15 4.89735 15.158 5.27888 15.4393 5.56019C15.7206 5.84149 16.1022 5.99953 16.5 5.99953C16.8978 5.99953 17.2794 5.84149 17.5607 5.56019C17.842 5.27888 18 4.89735 18 4.49953C18 4.1017 17.842 3.72017 17.5607 3.43887C17.2794 3.15756 16.8978 2.99953 16.5 2.99953ZM3.75 8.99953H7.755C7.59 9.46903 7.5 9.97453 7.5 10.4995H3.75C3.55109 10.4995 3.36032 10.5785 3.21967 10.7192C3.07902 10.8599 3 11.0506 3 11.2495C3 12.475 3.4875 13.384 4.257 14.002C4.611 14.287 5.0355 14.5165 5.5155 14.6845C5.16301 15.0592 4.89138 15.5024 4.7175 15.9865C4.214 15.7843 3.74257 15.5099 3.318 15.172C2.19 14.2645 1.5 12.9235 1.5 11.2495C1.5 10.6528 1.73705 10.0805 2.15901 9.65854C2.58097 9.23658 3.15326 8.99953 3.75 8.99953ZM9.402 8.99953C9.00418 9.68896 8.89652 10.5082 9.10272 11.277C9.30891 12.0458 9.81207 12.7012 10.5015 13.099C11.1909 13.4969 12.0102 13.6045 12.779 13.3983C13.5478 13.1921 14.2032 12.689 14.601 11.9995C14.9988 11.3101 15.1065 10.4909 14.9003 9.72206C14.6941 8.95326 14.1909 8.29785 13.5015 7.90003C12.8121 7.5022 11.9928 7.39455 11.224 7.60074C10.4552 7.80694 9.79982 8.3101 9.402 8.99953ZM11.664 9.03703C11.8838 8.98738 12.1119 8.98773 12.3315 9.03805C12.5511 9.08838 12.7567 9.18738 12.9329 9.32777C13.1091 9.46815 13.2516 9.64633 13.3497 9.84914C13.4479 10.0519 13.4992 10.2742 13.5 10.4995C13.4999 10.7818 13.4201 11.0582 13.27 11.2972C13.1198 11.5361 12.9052 11.7278 12.6509 11.8503C12.3966 11.9728 12.113 12.021 11.8325 11.9895C11.5521 11.958 11.2862 11.848 11.0654 11.6722C10.8447 11.4963 10.678 11.2618 10.5846 10.9955C10.4911 10.7291 10.4747 10.4419 10.5373 10.1666C10.5998 9.89143 10.7387 9.63943 10.938 9.43961C11.1373 9.23979 11.3889 9.10025 11.664 9.03703ZM19.743 14.002C19.389 14.287 18.9645 14.5165 18.4845 14.6845C18.8364 15.0593 19.1076 15.5025 19.281 15.9865C19.791 15.778 20.2635 15.5065 20.682 15.172C21.81 14.2645 22.5 12.9235 22.5 11.2495C22.5 10.6528 22.2629 10.0805 21.841 9.65854C21.419 9.23658 20.8467 8.99953 20.25 8.99953H16.245C16.41 9.46903 16.5 9.97453 16.5 10.4995H20.25C20.4489 10.4995 20.6397 10.5785 20.7803 10.7192C20.921 10.8599 21 11.0506 21 11.2495C21 12.475 20.5125 13.384 19.743 14.002ZM15.75 14.9995C16.3467 14.9995 16.919 15.2366 17.341 15.6585C17.7629 16.0805 18 16.6528 18 17.2495C18 18.9235 17.3115 20.2645 16.182 21.172C15.0705 22.0645 13.5795 22.4995 12 22.4995C10.4205 22.4995 8.9295 22.0645 7.818 21.172C6.69 20.2645 6 18.9235 6 17.2495C5.99921 16.9538 6.05687 16.6609 6.16966 16.3876C6.28245 16.1142 6.44815 15.8659 6.65724 15.6568C6.86633 15.4477 7.11469 15.282 7.38803 15.1692C7.66137 15.0564 7.9543 14.9987 8.25 14.9995H15.75ZM15.75 16.4995H8.25C8.05109 16.4995 7.86032 16.5785 7.71967 16.7192C7.57902 16.8599 7.5 17.0506 7.5 17.2495C7.5 18.475 7.9875 19.384 8.757 20.002C9.546 20.635 10.68 20.9995 12 20.9995C13.32 20.9995 14.454 20.635 15.243 20.002C16.0125 19.384 16.5 18.475 16.5 17.2495C16.5 17.0506 16.421 16.8599 16.2803 16.7192C16.1397 16.5785 15.9489 16.4995 15.75 16.4995Z" fill="black"/>
</svg>
