<svg width="24" height="24" viewBox="0 0 24 24" fill="none" xmlns="http://www.w3.org/2000/svg">
<path d="M11.25 12.8859L9.3075 10.9434L8.25 12.0009L11.25 15.0009L16.5 9.75086L15.4425 8.69336L11.25 12.8859Z" fill="black"/>
<path d="M22.5 11.25H20.9625C20.783 9.13206 19.8601 7.14588 18.3571 5.6429C16.8541 4.13992 14.8679 3.21702 12.75 3.0375V1.5H11.25V3.0375C9.13206 3.21702 7.14588 4.13992 5.6429 5.6429C4.13992 7.14588 3.21702 9.13206 3.0375 11.25H1.5V12.75H3.0375C3.21702 14.8679 4.13992 16.8541 5.6429 18.3571C7.14588 19.8601 9.13206 20.783 11.25 20.9625V22.5H12.75V20.9625C14.8679 20.783 16.8541 19.8601 18.3571 18.3571C19.8601 16.8541 20.783 14.8679 20.9625 12.75H22.5V11.25ZM12.75 19.4625V17.25H11.25V19.4625C9.52948 19.2872 7.92213 18.5237 6.69924 17.3008C5.47634 16.0779 4.71281 14.4705 4.5375 12.75H6.75V11.25H4.5375C4.71281 9.52948 5.47634 7.92213 6.69924 6.69924C7.92213 5.47634 9.52948 4.71281 11.25 4.5375V6.75H12.75V4.5375C14.4705 4.71281 16.0779 5.47634 17.3008 6.69924C18.5237 7.92213 19.2872 9.52948 19.4625 11.25H17.25V12.75H19.4617C19.2865 14.4704 18.523 16.0777 17.3003 17.3005C16.0776 18.5234 14.4704 19.287 12.75 19.4625Z" fill="black"/>
</svg>
