<svg width="24" height="24" viewBox="0 0 24 24" fill="none" xmlns="http://www.w3.org/2000/svg">
<path d="M21 8.25C21 8.70313 20.9258 9.13281 20.7773 9.53906C20.6289 9.94531 20.4141 10.3125 20.1328 10.6406C19.8516 10.9688 19.5273 11.2461 19.1602 11.4727C18.793 11.6992 18.3828 11.8516 17.9297 11.9297C17.8437 12.375 17.6914 12.7852 17.4727 13.1602C17.2539 13.5352 16.9766 13.8594 16.6406 14.1328C16.3047 14.4063 15.9375 14.6172 15.5391 14.7656C15.1406 14.9141 14.7109 14.9922 14.25 15H9.75C9.5 15 9.26172 15.0391 9.03516 15.1172C8.80859 15.1953 8.60156 15.3047 8.41406 15.4453C8.22656 15.5859 8.0625 15.7539 7.92188 15.9492C7.78125 16.1445 7.67578 16.3633 7.60547 16.6055C8.02734 16.707 8.41406 16.8711 8.76562 17.0977C9.11719 17.3242 9.42188 17.6016 9.67969 17.9297C9.9375 18.2578 10.1367 18.6172 10.2773 19.0078C10.418 19.3984 10.4922 19.8125 10.5 20.25C10.5 20.7656 10.4023 21.25 10.207 21.7031C10.0117 22.1563 9.74219 22.5547 9.39844 22.8984C9.05469 23.2422 8.65625 23.5117 8.20312 23.707C7.75 23.9023 7.26562 24 6.75 24C6.23438 24 5.75 23.9023 5.29688 23.707C4.84375 23.5117 4.44531 23.2461 4.10156 22.9102C3.75781 22.5742 3.48828 22.1758 3.29297 21.7148C3.09766 21.2539 3 20.7656 3 20.25C3 19.8047 3.07422 19.3789 3.22266 18.9727C3.37109 18.5664 3.57813 18.2031 3.84375 17.8828C4.10937 17.5625 4.42578 17.2852 4.79297 17.0508C5.16016 16.8164 5.5625 16.6602 6 16.582V7.41797C5.5625 7.33203 5.16016 7.17578 4.79297 6.94922C4.42578 6.72266 4.10937 6.44922 3.84375 6.12891C3.57813 5.80859 3.37109 5.44141 3.22266 5.02734C3.07422 4.61328 3 4.1875 3 3.75C3 3.23438 3.09766 2.75 3.29297 2.29688C3.48828 1.84375 3.75391 1.44922 4.08984 1.11328C4.42578 0.777344 4.82422 0.507813 5.28516 0.304688C5.74609 0.101562 6.23438 0 6.75 0C7.26562 0 7.75 0.0976563 8.20312 0.292969C8.65625 0.488281 9.05078 0.757812 9.38672 1.10156C9.72266 1.44531 9.99219 1.84375 10.1953 2.29688C10.3984 2.75 10.5 3.23438 10.5 3.75C10.5 4.19531 10.4258 4.62109 10.2773 5.02734C10.1289 5.43359 9.92187 5.79687 9.65625 6.11719C9.39063 6.4375 9.07422 6.71484 8.70703 6.94922C8.33984 7.18359 7.9375 7.33984 7.5 7.41797V14.2734C7.82812 14.0234 8.18359 13.832 8.56641 13.6992C8.94922 13.5664 9.34375 13.5 9.75 13.5H14.25C14.5 13.5 14.7383 13.4609 14.9648 13.3828C15.1914 13.3047 15.3984 13.1953 15.5859 13.0547C15.7734 12.9141 15.9375 12.7461 16.0781 12.5508C16.2188 12.3555 16.3242 12.1367 16.3945 11.8945C15.9727 11.793 15.5859 11.6289 15.2344 11.4023C14.8828 11.1758 14.5781 10.9023 14.3203 10.582C14.0625 10.2617 13.8633 9.90234 13.7227 9.50391C13.582 9.10547 13.5078 8.6875 13.5 8.25C13.5 7.73438 13.5977 7.25 13.793 6.79688C13.9883 6.34375 14.2539 5.94922 14.5898 5.61328C14.9258 5.27734 15.3242 5.00781 15.7852 4.80469C16.2461 4.60156 16.7344 4.5 17.25 4.5C17.7656 4.5 18.25 4.59766 18.7031 4.79297C19.1563 4.98828 19.5508 5.25781 19.8867 5.60156C20.2227 5.94531 20.4922 6.34375 20.6953 6.79688C20.8984 7.25 21 7.73438 21 8.25ZM4.5 3.75C4.5 4.0625 4.55859 4.35547 4.67578 4.62891C4.79297 4.90234 4.95312 5.14062 5.15625 5.34375C5.35938 5.54688 5.59766 5.70703 5.87109 5.82422C6.14453 5.94141 6.4375 6 6.75 6C7.0625 6 7.35547 5.94141 7.62891 5.82422C7.90234 5.70703 8.14062 5.54688 8.34375 5.34375C8.54688 5.14062 8.70703 4.90234 8.82422 4.62891C8.94141 4.35547 9 4.0625 9 3.75C9 3.4375 8.94141 3.14453 8.82422 2.87109C8.70703 2.59766 8.54688 2.35938 8.34375 2.15625C8.14062 1.95312 7.90234 1.79297 7.62891 1.67578C7.35547 1.55859 7.0625 1.5 6.75 1.5C6.4375 1.5 6.14453 1.55859 5.87109 1.67578C5.59766 1.79297 5.35938 1.95312 5.15625 2.15625C4.95312 2.35938 4.79297 2.59766 4.67578 2.87109C4.55859 3.14453 4.5 3.4375 4.5 3.75ZM9 20.25C9 19.9375 8.94141 19.6445 8.82422 19.3711C8.70703 19.0977 8.54688 18.8594 8.34375 18.6562C8.14062 18.4531 7.90234 18.293 7.62891 18.1758C7.35547 18.0586 7.0625 18 6.75 18C6.4375 18 6.14453 18.0586 5.87109 18.1758C5.59766 18.293 5.35938 18.4531 5.15625 18.6562C4.95312 18.8594 4.79297 19.0977 4.67578 19.3711C4.55859 19.6445 4.5 19.9375 4.5 20.25C4.5 20.5625 4.55859 20.8555 4.67578 21.1289C4.79297 21.4023 4.95312 21.6406 5.15625 21.8438C5.35938 22.0469 5.59766 22.207 5.87109 22.3242C6.14453 22.4414 6.4375 22.5 6.75 22.5C7.0625 22.5 7.35547 22.4414 7.62891 22.3242C7.90234 22.207 8.14062 22.0469 8.34375 21.8438C8.54688 21.6406 8.70703 21.4023 8.82422 21.1289C8.94141 20.8555 9 20.5625 9 20.25ZM17.25 10.5C17.5625 10.5 17.8555 10.4414 18.1289 10.3242C18.4023 10.207 18.6406 10.0469 18.8438 9.84375C19.0469 9.64062 19.207 9.40234 19.3242 9.12891C19.4414 8.85547 19.5 8.5625 19.5 8.25C19.5 7.9375 19.4414 7.64453 19.3242 7.37109C19.207 7.09766 19.0469 6.85938 18.8438 6.65625C18.6406 6.45312 18.4023 6.29297 18.1289 6.17578C17.8555 6.05859 17.5625 6 17.25 6C16.9375 6 16.6445 6.05859 16.3711 6.17578C16.0977 6.29297 15.8594 6.45312 15.6562 6.65625C15.4531 6.85938 15.293 7.09766 15.1758 7.37109C15.0586 7.64453 15 7.9375 15 8.25C15 8.5625 15.0586 8.85547 15.1758 9.12891C15.293 9.40234 15.4531 9.64062 15.6562 9.84375C15.8594 10.0469 16.0977 10.207 16.3711 10.3242C16.6445 10.4414 16.9375 10.5 17.25 10.5Z" fill="black"/>
</svg>
