<svg width="1024" height="1025" viewBox="0 0 1024 1025" fill="none" xmlns="http://www.w3.org/2000/svg">
<path d="M657.837 235.825L687.554 175.739L938.069 523.343L673.969 967.512H572.094H536.359L427.121 728.63L426.977 728.314L426.63 728.34L194.723 745.162L170.928 741.592L145.81 711.69L145.806 711.686L84.8508 640.717L261.117 502.076L261.206 502.006L261.256 501.904L276.842 470.191L276.872 470.131L276.884 470.066L292.461 389.783L553.051 261.292L553.33 261.155V260.844V54.4944L626.934 119.759L656.905 235.728L657.241 237.03L657.837 235.825Z" fill="#222222" stroke="black"/>
<path d="M258.71 503.28L258.797 503.213L258.847 503.116L275.674 470.665L275.68 470.652L275.686 470.639L304.615 405.958L334.74 389.782L334.542 389.412L334.74 389.782L364.687 373.7L421.503 431.124L421.63 431.253L421.81 431.27L826.112 470.861L571.788 967.512H555.593L440.345 705.801L440.202 705.477L439.848 705.504L191.313 724.715L126.771 649.416L150.651 587.326L258.71 503.28Z" fill="white" stroke="black"/>
<path d="M602.753 235.802L567.402 253.291V105.218L602.753 235.802Z" fill="#D9D9D9" stroke="black"/>
<path d="M317.496 487.397L343.425 440.826L393.222 459.835L317.496 487.397Z" fill="#222222" stroke="black"/>
<path d="M388.493 720.998L357.251 691.676C352.041 686.787 345.385 683.72 338.284 682.937L300.426 678.764C295.859 678.26 291.237 678.716 286.856 680.102L177.481 714.704C164.526 718.803 150.383 714.541 141.849 703.968L105.03 658.352C101.533 654.019 96.2631 651.5 90.6948 651.5C87.2977 651.5 83.9668 652.439 81.0702 654.214L49.8226 673.36C41.4187 678.51 35.7564 687.146 34.3847 696.906L24.6717 766.017C23.4575 774.656 25.7138 783.425 30.947 790.405L37.5091 799.158C42.776 806.183 50.6253 810.819 59.32 812.041L64.0904 812.712C73.2213 813.995 82.4727 811.4 89.6036 805.554L106.949 791.336L136.216 768.029C143.302 762.386 152.396 759.904 161.366 761.165L254.573 774.264C263.543 775.525 271.6 780.417 276.856 787.795L298.566 818.266L317.902 840.308C323.116 846.25 330.289 850.124 338.117 851.224L344.635 852.14C353.88 853.439 363.244 850.762 370.404 844.77L377.459 838.868C383.725 833.624 387.824 826.243 388.961 818.151L398.588 749.653C400.081 739.028 396.316 728.34 388.493 720.998Z" fill="white" stroke="black" stroke-width="11"/>
<path d="M96 703L90.25 721.5M84.5 740L90.25 721.5M90.25 721.5L72 714.5M90.25 721.5L108.5 730" stroke="black" stroke-width="11"/>
<path d="M344.5 745C344.5 757.557 334.746 767.5 323 767.5C311.254 767.5 301.5 757.557 301.5 745C301.5 732.443 311.254 722.5 323 722.5C334.746 722.5 344.5 732.443 344.5 745Z" stroke="black" stroke-width="7"/>
</svg>
