<svg width="24" height="24" viewBox="0 0 24 24" fill="none" xmlns="http://www.w3.org/2000/svg">
<path d="M4 17V6C4 5.45 4.196 4.979 4.588 4.587C4.98 4.195 5.45067 3.99934 6 4H20C20.2833 4 20.521 4.096 20.713 4.288C20.905 4.48 21.0007 4.71734 21 5C21 5.28334 20.904 5.521 20.712 5.713C20.52 5.905 20.2827 6.00067 20 6H6V17H10.5C10.9167 17 11.271 17.146 11.563 17.438C11.855 17.73 12.0007 18.084 12 18.5C12 18.9167 11.854 19.271 11.562 19.563C11.27 19.855 10.916 20.0007 10.5 20H3.5C3.08334 20 2.729 19.854 2.437 19.562C2.145 19.27 1.99934 18.916 2 18.5C2 18.0833 2.146 17.729 2.438 17.437C2.73 17.145 3.084 16.9993 3.5 17H4ZM15 20C14.7167 20 14.479 19.904 14.287 19.712C14.095 19.52 13.9993 19.2827 14 19V9C14 8.71667 14.096 8.479 14.288 8.287C14.48 8.095 14.7173 7.99934 15 8H21C21.2833 8 21.521 8.096 21.713 8.288C21.905 8.48 22.0007 8.71734 22 9V19C22 19.2833 21.904 19.521 21.712 19.713C21.52 19.905 21.2827 20.0007 21 20H15ZM16 17H20V10H16V17Z" fill="black"/>
</svg>
