<svg width="24" height="24" viewBox="0 0 24 24" fill="none" xmlns="http://www.w3.org/2000/svg">
<path d="M16.5007 10.5H14.2507C14.0518 10.5 13.861 10.421 13.7204 10.2803C13.5797 10.1397 13.5007 9.94891 13.5007 9.75C13.5007 9.55109 13.5797 9.36032 13.7204 9.21967C13.861 9.07902 14.0518 9 14.2507 9H16.5007C16.6996 9 16.8904 9.07902 17.031 9.21967C17.1717 9.36032 17.2507 9.55109 17.2507 9.75C17.2507 9.94891 17.1717 10.1397 17.031 10.2803C16.8904 10.421 16.6996 10.5 16.5007 10.5ZM9.75071 9H9.00071V8.25C9.00071 8.05109 8.92169 7.86032 8.78103 7.71967C8.64038 7.57902 8.44962 7.5 8.25071 7.5C8.05179 7.5 7.86103 7.57902 7.72038 7.71967C7.57972 7.86032 7.50071 8.05109 7.50071 8.25V9H6.75071C6.55179 9 6.36103 9.07902 6.22038 9.21967C6.07972 9.36032 6.00071 9.55109 6.00071 9.75C6.00071 9.94891 6.07972 10.1397 6.22038 10.2803C6.36103 10.421 6.55179 10.5 6.75071 10.5H7.50071V11.25C7.50071 11.4489 7.57972 11.6397 7.72038 11.7803C7.86103 11.921 8.05179 12 8.25071 12C8.44962 12 8.64038 11.921 8.78103 11.7803C8.92169 11.6397 9.00071 11.4489 9.00071 11.25V10.5H9.75071C9.94962 10.5 10.1404 10.421 10.281 10.2803C10.4217 10.1397 10.5007 9.94891 10.5007 9.75C10.5007 9.55109 10.4217 9.36032 10.281 9.21967C10.1404 9.07902 9.94962 9 9.75071 9ZM22.6395 18.8109C22.3568 19.2146 21.9892 19.5514 21.5624 19.7978C21.1357 20.0442 20.6602 20.1941 20.1693 20.2371C19.6784 20.2801 19.184 20.2151 18.721 20.0466C18.2579 19.8781 17.8373 19.6103 17.4888 19.2619C17.4776 19.2506 17.4663 19.2394 17.456 19.2272L13.7332 15H10.2645L6.54539 19.2272L6.51258 19.2619C5.87902 19.8941 5.02073 20.2494 4.12571 20.25C3.63299 20.2498 3.14629 20.1418 2.6998 19.9334C2.2533 19.7251 1.85784 19.4215 1.54119 19.044C1.22454 18.6665 0.994391 18.2242 0.866897 17.7483C0.739404 17.2724 0.717664 16.7743 0.803205 16.2891C0.802753 16.2847 0.802753 16.2803 0.803205 16.2759L2.33789 8.3925C2.5663 7.09225 3.24563 5.91409 4.25654 5.06504C5.26744 4.21599 6.54524 3.75037 7.86539 3.75H16.1257C17.4419 3.7521 18.7158 4.21506 19.7262 5.05849C20.7366 5.90193 21.4197 7.07258 21.657 8.36719V8.38406L23.1916 16.275C23.1921 16.2794 23.1921 16.2838 23.1916 16.2881C23.2711 16.7243 23.2632 17.1718 23.1684 17.6049C23.0736 18.0379 22.8938 18.4479 22.6395 18.8109ZM16.1257 13.5C17.2197 13.5 18.2689 13.0654 19.0425 12.2918C19.8161 11.5182 20.2507 10.469 20.2507 9.375C20.2507 8.28098 19.8161 7.23177 19.0425 6.45818C18.2689 5.6846 17.2197 5.25 16.1257 5.25H7.86539C6.89691 5.25087 5.95976 5.59325 5.2188 6.21691C4.47785 6.84057 3.98057 7.70556 3.81446 8.65969V8.67188L2.27883 16.5553C2.21095 16.9461 2.26878 17.3484 2.444 17.7043C2.61921 18.0602 2.90279 18.3514 3.25394 18.5359C3.60509 18.7204 4.00572 18.7889 4.39821 18.7313C4.79069 18.6738 5.15482 18.4932 5.43821 18.2156L9.3682 13.7541C9.43857 13.6742 9.52512 13.6103 9.62211 13.5665C9.71909 13.5227 9.82429 13.5 9.9307 13.5H16.1257ZM21.7226 16.5553L20.9032 12.3366C20.3993 13.1503 19.696 13.822 18.86 14.2881C18.024 14.7542 17.0829 14.9992 16.1257 15H15.732L18.5632 18.2166C18.7767 18.4242 19.0363 18.5783 19.3209 18.6661C19.6054 18.7539 19.9067 18.773 20.2001 18.7219C20.6888 18.6356 21.1234 18.3591 21.4086 17.953C21.6938 17.5469 21.8064 17.0443 21.7216 16.5553H21.7226Z" fill="black"/>
</svg>
