<svg width="24" height="24" viewBox="0 0 24 24" fill="none" xmlns="http://www.w3.org/2000/svg">
<path d="M22.6172 7.38281C22.6172 7.55469 22.6094 7.72266 22.5938 7.88672C22.5781 8.05078 22.5469 8.21875 22.5 8.39062L23.9414 8.98828L23.3672 10.3711L21.9141 9.77344C21.5547 10.3516 21.0859 10.8203 20.5078 11.1797L21.1055 12.6445L19.7227 13.2188L19.1133 11.7656C18.9492 11.8047 18.7852 11.832 18.6211 11.8477C18.457 11.8633 18.2891 11.875 18.1172 11.8828C17.9453 11.8828 17.7773 11.875 17.6133 11.8594C17.4492 11.8437 17.2813 11.8125 17.1094 11.7656L16.8398 12.4219L15.5391 11.6367L15.7266 11.1797C15.1484 10.8203 14.6797 10.3516 14.3203 9.77344L12.8555 10.3711L12.2812 8.98828L13.7344 8.39062C13.6953 8.22656 13.668 8.0625 13.6523 7.89844C13.6367 7.73438 13.625 7.5625 13.6172 7.38281C13.6172 7.21094 13.625 7.04297 13.6406 6.87891C13.6563 6.71484 13.6875 6.55078 13.7344 6.38672L12.2812 5.77734L12.8555 4.39453L14.3203 5.00391C14.5 4.71484 14.707 4.45312 14.9414 4.21875C15.1758 3.98438 15.4375 3.77344 15.7266 3.58594L15.1289 2.13281L16.5117 1.55859L17.1094 3C17.2734 2.96094 17.4375 2.93359 17.6016 2.91797C17.7656 2.90234 17.9375 2.89063 18.1172 2.88281C18.2891 2.88281 18.457 2.89062 18.6211 2.90625C18.7852 2.92188 18.9492 2.95312 19.1133 3L19.7227 1.55859L21.1055 2.13281L20.5078 3.58594C21.0859 3.94531 21.5547 4.41406 21.9141 4.99219L23.3672 4.39453L23.9414 5.77734L22.5 6.38672C22.5391 6.55078 22.5664 6.71484 22.582 6.87891C22.5977 7.04297 22.6094 7.21094 22.6172 7.38281ZM18.1172 10.3828C18.5312 10.3828 18.918 10.3047 19.2773 10.1484C19.6367 9.99219 19.957 9.77734 20.2383 9.50391C20.5195 9.23047 20.7344 8.91406 20.8828 8.55469C21.0313 8.19531 21.1094 7.80469 21.1172 7.38281C21.1172 6.96875 21.0391 6.58203 20.8828 6.22266C20.7266 5.86328 20.5117 5.54297 20.2383 5.26172C19.9648 4.98047 19.6484 4.76563 19.2891 4.61719C18.9297 4.46875 18.5391 4.39063 18.1172 4.38281C17.7031 4.38281 17.3164 4.46094 16.957 4.61719C16.5977 4.77344 16.2773 4.98828 15.9961 5.26172C15.7148 5.53516 15.5 5.85156 15.3516 6.21094C15.2031 6.57031 15.125 6.96094 15.1172 7.38281C15.1172 7.79687 15.1953 8.18359 15.3516 8.54297C15.5078 8.90234 15.7227 9.22266 15.9961 9.50391C16.2695 9.78516 16.5859 10 16.9453 10.1484C17.3047 10.2969 17.6953 10.375 18.1172 10.3828ZM11.3555 12.9609L12.9844 12.2812L13.5 13.5234V13.6992L11.9414 14.3438C11.9961 14.5547 12.0391 14.7656 12.0703 14.9766C12.1016 15.1875 12.1172 15.4062 12.1172 15.6328C12.1172 15.8516 12.1016 16.0664 12.0703 16.2773C12.0391 16.4883 11.9961 16.7031 11.9414 16.9219L13.5 17.5664V17.7422L12.9844 18.9844L11.3555 18.3047C11.1289 18.6797 10.8633 19.0195 10.5586 19.3242C10.2539 19.6289 9.91406 19.8984 9.53906 20.1328L10.2188 21.7617L8.82422 22.3359L8.15625 20.707C7.94531 20.7617 7.73438 20.8047 7.52344 20.8359C7.3125 20.8672 7.09375 20.8828 6.86719 20.8828C6.64844 20.8828 6.43359 20.8672 6.22266 20.8359C6.01172 20.8047 5.79687 20.7617 5.57812 20.707L4.89844 22.3359L3.51562 21.7617L4.19531 20.1211C3.4375 19.668 2.83203 19.0625 2.37891 18.3047L0.738281 18.9844L0.175781 17.6016L1.79297 16.9219C1.73828 16.7109 1.69531 16.5 1.66406 16.2891C1.63281 16.0781 1.61719 15.8594 1.61719 15.6328C1.61719 15.4141 1.63281 15.1992 1.66406 14.9883C1.69531 14.7773 1.73828 14.5625 1.79297 14.3438L0.175781 13.6758L0.738281 12.2812L2.37891 12.9609C2.83203 12.2031 3.4375 11.5977 4.19531 11.1445L3.51562 9.51562L4.89844 8.94141L5.57812 10.5586C5.78906 10.5039 6 10.4609 6.21094 10.4297C6.42188 10.3984 6.64062 10.3828 6.86719 10.3828C7.08594 10.3828 7.30078 10.3984 7.51172 10.4297C7.72266 10.4609 7.9375 10.5039 8.15625 10.5586L8.82422 8.94141L10.2188 9.51562L9.53906 11.1445C10.2969 11.5977 10.9023 12.2031 11.3555 12.9609ZM6.86719 19.3828C7.38281 19.3828 7.86719 19.2852 8.32031 19.0898C8.77344 18.8945 9.16797 18.6289 9.50391 18.293C9.83984 17.957 10.1094 17.5586 10.3125 17.0977C10.5156 16.6367 10.6172 16.1484 10.6172 15.6328C10.6172 15.1172 10.5195 14.6328 10.3242 14.1797C10.1289 13.7266 9.85938 13.332 9.51562 12.9961C9.17187 12.6602 8.77344 12.3906 8.32031 12.1875C7.86719 11.9844 7.38281 11.8828 6.86719 11.8828C6.35156 11.8828 5.86719 11.9805 5.41406 12.1758C4.96094 12.3711 4.5625 12.6406 4.21875 12.9844C3.875 13.3281 3.60547 13.7266 3.41016 14.1797C3.21484 14.6328 3.11719 15.1172 3.11719 15.6328C3.11719 16.1484 3.21484 16.6328 3.41016 17.0859C3.60547 17.5391 3.87109 17.9375 4.20703 18.2812C4.54297 18.625 4.94141 18.8945 5.40234 19.0898C5.86328 19.2852 6.35156 19.3828 6.86719 19.3828ZM15 24V13.5L23.7539 18.75L15 24ZM16.5 16.1484V21.3516L20.8359 18.75L16.5 16.1484Z" fill="black"/>
</svg>
